<mxfile host="65bd71144e">
    <diagram id="NUrl7HOWUls8WU3J8Ah8" name="Page-1">
        <mxGraphModel dx="2837" dy="2373" grid="1" gridSize="10" guides="1" tooltips="1" connect="1" arrows="1" fold="1" page="1" pageScale="1" pageWidth="850" pageHeight="1100" math="0" shadow="0">
            <root>
                <mxCell id="0"/>
                <mxCell id="1" parent="0"/>
                <mxCell id="5" style="edgeStyle=none;html=1;entryX=-0.019;entryY=0.274;entryDx=0;entryDy=0;entryPerimeter=0;curved=1;" parent="1" source="2" target="3" edge="1">
                    <mxGeometry relative="1" as="geometry">
                        <mxPoint x="-240" y="-770" as="targetPoint"/>
                        <Array as="points">
                            <mxPoint x="-310" y="-790"/>
                        </Array>
                    </mxGeometry>
                </mxCell>
                <mxCell id="10" value="knows about" style="edgeLabel;html=1;align=center;verticalAlign=middle;resizable=0;points=[];" parent="5" vertex="1" connectable="0">
                    <mxGeometry x="-0.1707" relative="1" as="geometry">
                        <mxPoint as="offset"/>
                    </mxGeometry>
                </mxCell>
                <mxCell id="6" style="edgeStyle=none;html=1;entryX=0;entryY=0.75;entryDx=0;entryDy=0;curved=1;" parent="1" source="2" target="4" edge="1">
                    <mxGeometry relative="1" as="geometry">
                        <mxPoint x="-240" y="-940" as="targetPoint"/>
                        <Array as="points">
                            <mxPoint x="-300" y="-940"/>
                        </Array>
                    </mxGeometry>
                </mxCell>
                <mxCell id="8" value="knows about" style="edgeLabel;html=1;align=center;verticalAlign=middle;resizable=0;points=[];" parent="6" vertex="1" connectable="0">
                    <mxGeometry x="-0.1394" y="-1" relative="1" as="geometry">
                        <mxPoint as="offset"/>
                    </mxGeometry>
                </mxCell>
                <mxCell id="2" value="menu" style="rounded=0;whiteSpace=wrap;html=1;" parent="1" vertex="1">
                    <mxGeometry x="-500" y="-910" width="120" height="60" as="geometry"/>
                </mxCell>
                <mxCell id="3" value="addMovies" style="rounded=0;whiteSpace=wrap;html=1;" parent="1" vertex="1">
                    <mxGeometry x="-230" y="-780" width="120" height="60" as="geometry"/>
                </mxCell>
                <mxCell id="4" value="listMovies" style="rounded=0;whiteSpace=wrap;html=1;" parent="1" vertex="1">
                    <mxGeometry x="-235" y="-980" width="120" height="60" as="geometry"/>
                </mxCell>
                <mxCell id="23" value="" style="curved=1;endArrow=classic;html=1;exitX=0.621;exitY=0.001;exitDx=0;exitDy=0;exitPerimeter=0;shadow=0;dashed=1;entryX=0;entryY=0.25;entryDx=0;entryDy=0;" parent="1" source="2" target="4" edge="1">
                    <mxGeometry width="50" height="50" relative="1" as="geometry">
                        <mxPoint x="-380" y="-950" as="sourcePoint"/>
                        <mxPoint x="-330" y="-1000" as="targetPoint"/>
                        <Array as="points">
                            <mxPoint x="-360" y="-960"/>
                        </Array>
                    </mxGeometry>
                </mxCell>
                <mxCell id="24" value="executes" style="edgeLabel;html=1;align=center;verticalAlign=middle;resizable=0;points=[];" parent="23" vertex="1" connectable="0">
                    <mxGeometry x="0.076" y="-3" relative="1" as="geometry">
                        <mxPoint as="offset"/>
                    </mxGeometry>
                </mxCell>
                <mxCell id="25" value="" style="curved=1;endArrow=classic;html=1;exitX=0.634;exitY=1.014;exitDx=0;exitDy=0;exitPerimeter=0;shadow=0;dashed=1;entryX=-0.019;entryY=0.781;entryDx=0;entryDy=0;entryPerimeter=0;" parent="1" source="2" target="3" edge="1">
                    <mxGeometry width="50" height="50" relative="1" as="geometry">
                        <mxPoint x="-415.48" y="-809.9399999999998" as="sourcePoint"/>
                        <mxPoint x="-210" y="-863.3333333333333" as="targetPoint"/>
                        <Array as="points">
                            <mxPoint x="-390" y="-810"/>
                            <mxPoint x="-360" y="-790"/>
                            <mxPoint x="-330" y="-770"/>
                            <mxPoint x="-290" y="-750"/>
                        </Array>
                    </mxGeometry>
                </mxCell>
                <mxCell id="26" value="executes" style="edgeLabel;html=1;align=center;verticalAlign=middle;resizable=0;points=[];" parent="25" vertex="1" connectable="0">
                    <mxGeometry x="0.076" y="-3" relative="1" as="geometry">
                        <mxPoint as="offset"/>
                    </mxGeometry>
                </mxCell>
                <mxCell id="71" value="addTravels" style="rounded=0;whiteSpace=wrap;html=1;" vertex="1" parent="1">
                    <mxGeometry x="-770" y="-800" width="120" height="60" as="geometry"/>
                </mxCell>
                <mxCell id="72" value="listTravels" style="rounded=0;whiteSpace=wrap;html=1;" vertex="1" parent="1">
                    <mxGeometry x="-770" y="-970" width="120" height="60" as="geometry"/>
                </mxCell>
                <mxCell id="73" value="" style="curved=1;endArrow=classic;html=1;shadow=0;dashed=1;entryX=1;entryY=0.25;entryDx=0;entryDy=0;" edge="1" parent="1" source="2" target="72">
                    <mxGeometry width="50" height="50" relative="1" as="geometry">
                        <mxPoint x="-520" y="-980.0000000000002" as="sourcePoint"/>
                        <mxPoint x="-314.52" y="-1045.06" as="targetPoint"/>
                        <Array as="points">
                            <mxPoint x="-520" y="-960"/>
                        </Array>
                    </mxGeometry>
                </mxCell>
                <mxCell id="74" value="executes" style="edgeLabel;html=1;align=center;verticalAlign=middle;resizable=0;points=[];" vertex="1" connectable="0" parent="73">
                    <mxGeometry x="0.076" y="-3" relative="1" as="geometry">
                        <mxPoint as="offset"/>
                    </mxGeometry>
                </mxCell>
                <mxCell id="80" style="edgeStyle=none;html=1;curved=1;entryX=1;entryY=0.75;entryDx=0;entryDy=0;" edge="1" parent="1" source="2" target="72">
                    <mxGeometry relative="1" as="geometry">
                        <mxPoint x="-660" y="-920" as="targetPoint"/>
                        <Array as="points">
                            <mxPoint x="-590" y="-920"/>
                        </Array>
                        <mxPoint x="-500" y="-960.7142857142858" as="sourcePoint"/>
                    </mxGeometry>
                </mxCell>
                <mxCell id="81" value="knows about" style="edgeLabel;html=1;align=center;verticalAlign=middle;resizable=0;points=[];" vertex="1" connectable="0" parent="80">
                    <mxGeometry x="-0.1394" y="-1" relative="1" as="geometry">
                        <mxPoint as="offset"/>
                    </mxGeometry>
                </mxCell>
                <mxCell id="82" style="edgeStyle=none;html=1;entryX=1;entryY=0.25;entryDx=0;entryDy=0;curved=1;exitX=0;exitY=0.75;exitDx=0;exitDy=0;" edge="1" parent="1" source="2" target="71">
                    <mxGeometry relative="1" as="geometry">
                        <mxPoint x="-680" y="-861.78" as="targetPoint"/>
                        <Array as="points">
                            <mxPoint x="-560" y="-820"/>
                        </Array>
                        <mxPoint x="-549.0000000000002" y="-780.0000000000001" as="sourcePoint"/>
                    </mxGeometry>
                </mxCell>
                <mxCell id="83" value="knows about" style="edgeLabel;html=1;align=center;verticalAlign=middle;resizable=0;points=[];" vertex="1" connectable="0" parent="82">
                    <mxGeometry x="-0.1394" y="-1" relative="1" as="geometry">
                        <mxPoint as="offset"/>
                    </mxGeometry>
                </mxCell>
                <mxCell id="84" value="" style="curved=1;endArrow=classic;html=1;shadow=0;dashed=1;" edge="1" parent="1" source="2">
                    <mxGeometry width="50" height="50" relative="1" as="geometry">
                        <mxPoint x="-510.0000000000002" y="-720" as="sourcePoint"/>
                        <mxPoint x="-640" y="-760" as="targetPoint"/>
                        <Array as="points">
                            <mxPoint x="-530" y="-750"/>
                        </Array>
                    </mxGeometry>
                </mxCell>
                <mxCell id="85" value="executes" style="edgeLabel;html=1;align=center;verticalAlign=middle;resizable=0;points=[];" vertex="1" connectable="0" parent="84">
                    <mxGeometry x="0.076" y="-3" relative="1" as="geometry">
                        <mxPoint as="offset"/>
                    </mxGeometry>
                </mxCell>
            </root>
        </mxGraphModel>
    </diagram>
</mxfile>